<?xml version="1.0" encoding="UTF-8" standalone="no"?>
<!-- Created with Inkscape (http://www.inkscape.org/) -->

<svg
   width="1000mm"
   height="700mm"
   viewBox="0 0 1000 700"
   version="1.1"
   id="svg5"
   inkscape:version="1.3.2 (1:1.3.2+202311252150+091e20ef0f)"
   sodipodi:docname="ink_img001.svg"
   xmlns:inkscape="http://www.inkscape.org/namespaces/inkscape"
   xmlns:sodipodi="http://sodipodi.sourceforge.net/DTD/sodipodi-0.dtd"
   xmlns="http://www.w3.org/2000/svg"
   xmlns:svg="http://www.w3.org/2000/svg">
  <sodipodi:namedview
     id="namedview7"
     pagecolor="#ffffff"
     bordercolor="#cccccc"
     borderopacity="1"
     inkscape:showpageshadow="0"
     inkscape:pageopacity="1"
     inkscape:pagecheckerboard="0"
     inkscape:deskcolor="#d1d1d1"
     inkscape:document-units="mm"
     showgrid="false"
     inkscape:zoom="0.2102413"
     inkscape:cx="1752.7479"
     inkscape:cy="1217.6485"
     inkscape:window-width="1440"
     inkscape:window-height="836"
     inkscape:window-x="0"
     inkscape:window-y="0"
     inkscape:window-maximized="1"
     inkscape:current-layer="layer1"
     inkscape:lockguides="false" />
  <defs
     id="defs2" />
  <g
     inkscape:label="Layer 1"
     inkscape:groupmode="layer"
     id="layer1">
    <path
       style="fill:#1a1a1a;stroke:#642bdb;stroke-width:0"
       id="path11"
       d="m 177.98764,92.216612 c -6.10806,-2.182889 -12.46322,-3.366135 -18.96535,-2.655353 -5.47965,0.599011 -10.90529,2.599507 -16.07037,4.405593 -11.22884,4.655423 -20.94749,11.884488 -30.00106,19.861518 -7.84516,7.33308 -14.492087,16.03098 -19.157752,25.73494 -0.765876,1.59292 -1.381739,3.2537 -2.072606,4.88056 -4.526558,12.03859 -6.164834,24.83122 -7.969464,37.48367 -0.270735,2.23249 -0.553662,4.46353 -0.81221,6.69746 -0.50007,4.3208 -0.750747,5.97889 -0.786926,10.21123 -0.04467,5.2248 0.307295,10.47015 0.458562,15.69204 0.07967,7.1876 1.631432,13.80766 3.688244,20.63771 1.629193,4.40424 2.648786,9.17868 5.005075,13.29523 1.243539,2.17252 2.433908,3.3858 4.06326,5.31249 5.321097,5.92178 10.517677,11.94776 15.747137,17.94907 5.02957,6.06237 12.43588,8.53741 19.64991,10.99558 7.48418,2.52185 15.1016,4.51239 22.95477,5.39276 8.10767,-0.0682 16.25788,-0.27569 24.30528,-1.329 7.03871,-0.78237 14.10221,-1.40401 21.11558,-2.39451 6.31053,-1.13747 12.64564,-2.17781 18.89647,-3.61666 0.84257,-0.29285 1.69707,-0.55335 2.52769,-0.87853 3.60607,-1.41168 1.78479,-0.99547 5.49919,-2.15241 2.55275,-0.79513 4.91776,-1.44698 7.36195,-2.55992 3.4138,-2.20866 7.0813,-4.0789 10.33559,-6.53148 0.90293,-0.68048 2.94514,-2.51952 3.88191,-3.35153 3.48463,-3.05946 7.25112,-5.76736 11.05147,-8.42429 5.37348,-2.54019 8.55388,-7.44864 11.70009,-12.24833 2.69997,-3.65646 4.73816,-7.31053 5.7866,-11.72364 0.88424,-3.62067 2.32722,-7.06443 3.36508,-10.63924 0.67818,-4.00523 -0.0662,-8.05455 -0.0581,-12.09177 0.12266,-4.70224 0.0889,-9.4059 0.0723,-14.10906 -0.01,-4.47581 0.003,-8.95163 0.003,-13.42745 -0.67583,-3.92678 -0.89781,-7.90263 -1.59092,-11.82655 -0.42481,-2.44877 -1.86594,-4.57531 -2.51277,-6.94656 -0.28792,-1.05548 -0.34335,-2.16098 -0.5107,-3.24214 -0.69646,-3.49052 -2.18437,-6.74629 -3.50322,-10.03115 -1.47785,-3.21268 -2.19196,-6.68457 -3.70448,-9.87581 -2.18982,-3.26782 -4.45075,-6.48385 -6.60671,-9.77568 -1.84358,-2.9542 -3.84775,-5.81603 -6.30869,-8.28804 -2.18236,-2.27864 -4.11014,-4.74799 -6.3988,-6.94497 -2.44945,-1.9206 -4.13196,-4.48697 -6.12854,-6.81382 -2.6017,-2.33372 -4.63851,-5.17225 -7.07334,-7.66682 -2.25736,-2.401199 -5.17215,-3.757562 -8.24763,-4.780092 -3.72256,-0.718285 -6.94312,-2.599298 -10.37263,-4.074474 -0.6994,-0.20582 -1.3918,-0.437074 -2.09819,-0.617461 -0.90743,-0.200089 -3.52182,-0.766821 -4.47267,-1.01287 -1.74191,-0.450747 -3.35569,-1.071473 -5.12264,-1.425932 -3.99878,0.127685 -7.97889,0.343879 -11.98948,0.288483 -5.56819,-0.444828 -10.83305,1.35536 -16.06706,2.957295 -2.28017,0.783797 -4.60161,1.582217 -6.72733,2.723978 -0.2962,0.224512 -0.5924,0.449027 -0.88861,0.673539 0,0 1.22686,1.579499 1.22686,1.579499 v 0 c 0.20565,-0.165293 0.4113,-0.330586 0.61695,-0.495879 1.99467,-1.100532 4.2152,-1.811591 6.35747,-2.56871 5.03604,-1.541441 10.09425,-3.308141 15.4542,-2.869911 3.89103,0.05334 7.75692,-0.09259 11.63515,-0.325083 1.74153,0.326064 3.33557,0.967012 5.05071,1.410562 4.54543,1.175491 -0.2576,-0.169034 4.36837,0.985589 0.6285,0.156869 1.24548,0.356735 1.86823,0.535104 3.48293,1.487749 6.75733,3.404044 10.53257,4.135083 2.77745,0.91364 5.41245,2.10636 7.44552,4.27931 2.40865,2.46018 4.41116,5.27614 6.98824,7.5741 2.04573,2.36463 3.76029,4.99423 6.25925,6.95173 2.27946,2.18552 4.18899,4.65117 6.36865,6.91543 2.37394,2.36591 4.27113,5.13962 6.05035,7.97016 2.10773,3.21807 4.30048,6.37405 6.47664,9.54512 1.52506,3.13352 2.15151,6.60152 3.65175,9.75604 1.26325,3.1435 2.69116,6.25784 3.38267,9.59178 0.0967,0.62391 0.46083,3.07656 0.61603,3.64239 0.61807,2.25341 1.96948,4.27609 2.41483,6.59068 0.68318,3.80709 0.86598,7.67066 1.55998,11.47612 1.1e-4,4.47815 -0.0114,8.95629 -0.003,13.43443 0.0164,4.69974 0.0501,9.39996 -0.0723,14.09879 -0.005,3.85332 0.66236,7.71077 0.13703,11.53869 -1.04196,3.60762 -2.51275,7.07778 -3.39022,10.7348 -0.98721,4.18526 -2.95357,7.61907 -5.51317,11.08816 -3.01419,4.60062 -6.00691,9.29156 -11.17354,11.70562 -3.86245,2.7021 -7.69044,5.45844 -11.23356,8.56805 -0.76291,0.67793 -2.95775,2.6491 -3.67633,3.1916 -3.16445,2.38898 -6.73637,4.19981 -10.04597,6.36836 -2.38438,1.10001 -4.6964,1.70945 -7.19379,2.49193 -3.78327,1.18539 -1.9953,0.76539 -5.49512,2.15101 -0.7611,0.30133 -1.54386,0.5448 -2.31578,0.81722 -6.19453,1.42819 -12.47424,2.45385 -18.72761,3.58531 -7.00627,0.99261 -14.06409,1.60753 -21.0958,2.39184 -7.88848,1.03886 -15.87671,1.22372 -23.82439,1.32416 -7.71113,-0.8463 -15.18206,-2.83562 -22.53075,-5.29823 -6.87995,-2.34027 -13.98415,-4.6378 -18.78671,-10.4163 -5.22425,-5.99398 -10.41365,-12.01443 -15.729671,-17.92875 -1.361943,-1.60071 -2.721417,-3.02748 -3.772358,-4.85643 -2.316922,-4.03215 -3.303151,-8.7198 -4.906237,-13.03453 -2.007979,-6.66251 -3.531529,-13.10434 -3.604067,-20.11872 -0.150016,-5.17604 -0.49874,-10.37516 -0.45933,-15.55407 0.03172,-4.16805 0.279077,-5.77229 0.773993,-10.05056 0.256816,-2.22002 0.537808,-4.43718 0.806712,-6.65577 1.780186,-12.48144 3.38514,-25.10335 7.830976,-36.98571 0.665073,-1.57286 1.256985,-3.17871 1.995218,-4.71859 4.551654,-9.4943 11.049404,-18.00243 18.716194,-25.17696 8.85697,-7.81103 18.3602,-14.89517 29.33943,-19.474182 4.96155,-1.739427 10.19278,-3.692028 15.45417,-4.293738 6.2398,-0.713605 12.33544,0.426969 18.19898,2.521109 z" />
    <path
       style="fill:#1a1a1a;stroke:#642bdb;stroke-width:0"
       id="path12"
       d="m 165.19489,135.52808 c 0.33185,6.67891 1.79328,13.19978 2.17786,19.87373 -0.35083,4.65019 0.46856,9.23172 0.51072,13.87226 -0.44419,4.4761 0.56211,8.86968 0.58999,13.33359 -0.12614,3.10644 -0.19957,6.21147 -0.14151,9.31988 0.023,2.36261 2.1e-4,4.72533 -5.3e-4,7.088 -0.053,1.07192 0.0192,0.97492 0.82465,1.98742 0,0 0.93121,-1.76999 0.93121,-1.76999 v 0 c 0.53709,1.59413 0.1283,0.21845 0.24414,-0.21685 8e-4,-2.37532 0.0237,-4.75069 1.4e-4,-7.12595 -0.058,-3.101 0.0191,-6.19839 0.1418,-9.2975 -0.0387,-4.46755 -1.01988,-8.85958 -0.59003,-13.33816 -0.0488,-4.67435 -0.85946,-9.28537 -0.51402,-13.96918 -0.39551,-6.70116 -1.83674,-13.25114 -2.18439,-19.95626 z" />
    <path
       style="fill:#1a1a1a;stroke:#642bdb;stroke-width:0"
       id="path18"
       d="m 285.13542,174.3942 c 1.35776,-0.0967 2.7201,-0.14255 4.07326,-0.29015 4.20987,-0.45923 8.19925,-1.23438 12.46992,-1.14821 4.32321,0.0872 9.54754,0.67423 13.78159,1.07445 15.83669,1.73569 31.70957,3.02843 47.64543,2.93415 9.99294,-0.13406 19.99488,-0.55243 29.99046,-0.33699 0.8975,0.0193 14.01564,0.59742 15.1552,0.64722 13.28635,0.0495 26.54676,0.39617 39.78746,1.53321 13.83147,1.49329 27.79297,1.31869 41.69191,1.40973 14.337,-0.0559 28.67371,-0.0955 43.01082,-0.0779 13.83409,0.002 27.66558,-0.81736 41.47254,-1.65042 11.90117,-0.45849 23.79964,-0.98437 35.68951,-1.67922 12.49635,-0.59511 24.98593,-1.408 37.46699,-2.30271 2.20744,-0.19705 4.41161,-0.43491 6.62233,-0.59117 4.34991,-0.30746 8.71212,-0.41143 13.06457,-0.68098 5.96792,-0.3696 11.9036,-1.00523 17.87178,-1.37003 7.53605,-0.14197 14.99931,-1.39526 22.51893,-1.73688 2.70899,-0.12307 5.42285,-0.11211 8.13223,-0.22681 7.35539,0.0437 14.67194,-0.85295 22.0235,-0.81104 5.80286,0.19756 11.60856,0.15633 17.41336,0.12057 3.49512,-0.27492 6.93219,-1.11732 10.43117,-1.29178 1.23989,0.0487 2.45388,0.19355 3.69473,0.1517 0.78943,-0.0175 0.39137,-0.0117 1.19422,-0.0173 0,0 -0.0145,-1.99995 -0.0145,-1.99995 v 0 c -0.84072,0.006 -0.4249,-3e-5 -1.24746,0.0185 -1.25254,0.0427 -2.47748,-0.13556 -3.732,-0.15009 -3.46835,0.19073 -6.87845,0.9675 -10.33849,1.28905 -5.7971,0.0357 -11.59507,0.0766 -17.39027,-0.12057 -7.38375,-0.0375 -14.73168,0.85054 -22.11906,0.81281 -2.7297,0.11611 -5.46394,0.10576 -8.19327,0.23033 -7.51173,0.34287 -14.96716,1.59236 -22.49533,1.7353 -5.96214,0.36573 -11.89198,0.99978 -17.85389,1.36901 -0.24144,0.0149 -13.02023,0.67786 -13.1381,0.68619 -2.19908,0.15538 -4.39166,0.39224 -6.58749,0.58836 -12.47227,0.89455 -24.95307,1.70699 -37.44068,2.301 -11.89112,0.69548 -23.79086,1.22005 -35.69327,1.67944 -13.76601,0.83116 -27.55657,1.64784 -41.34959,1.64679 -14.33359,-0.0176 -28.66676,0.0218 -43.00019,0.0779 -13.84628,-0.0905 -27.755,0.0862 -41.53397,-1.40244 -13.26857,-1.13822 -26.55684,-1.49179 -39.87118,-1.53863 -1.27404,-0.0557 -14.24027,-0.62762 -15.23965,-0.64913 -10.00054,-0.21526 -20.00742,0.20219 -30.00534,0.33702 -15.86905,0.0967 -31.67504,-1.19943 -47.44537,-2.92532 -4.39986,-0.4151 -9.55887,-0.99852 -14.02961,-1.08241 -4.30009,-0.0807 -8.3166,0.68463 -12.55332,1.15245 -1.30545,0.14415 -2.6199,0.19001 -3.92988,0.28501 z" />
    <path
       style="fill:#1a1a1a;stroke:#642bdb;stroke-width:0"
       id="path19"
       d="m 852.43103,87.584821 c -11.23831,2.992327 -22.36317,6.541016 -32.49671,12.367194 -4.55308,2.617745 -9.12294,5.987995 -13.41501,9.024715 -9.14844,7.07108 -18.09946,14.51421 -25.97536,23.01191 -1.63335,1.76232 -3.12013,3.65505 -4.68019,5.48257 -1.0877,1.84555 -2.36503,3.59176 -3.26308,5.53665 -1.53292,3.31976 -2.86713,8.90536 -3.65572,12.42061 -1.21685,5.42434 -2.06727,10.86202 -2.72357,16.37631 -0.5439,13.84683 0.44014,27.71865 2.22213,41.44547 1.21185,7.24509 2.5754,14.46217 3.82709,21.70039 0.3982,2.30268 0.67157,4.63006 1.18724,6.90932 1.14985,5.08251 2.06222,6.78853 3.99799,11.57927 5.2307,8.87981 10.07583,18.30357 17.22675,25.85544 1.65746,1.75037 3.48192,3.3347 5.22288,5.00208 6.99791,6.07234 14.2064,12.09055 22.5992,16.15868 4.79232,2.32294 7.23196,3.01136 12.28058,4.77951 6.62427,2.2642 13.56029,3.14998 20.45973,4.07824 5.89169,0.79266 11.69738,1.5471 17.63339,1.85221 9.55291,-0.29265 19.81404,-1.25184 29.0671,-3.74507 7.51033,-3.52427 14.97015,-7.55279 21.63612,-12.53468 1.56371,-1.16867 3.0295,-2.46296 4.54427,-3.69443 8.49106,-8.46373 16.69912,-17.39519 23.68148,-27.17112 1.32315,-1.85254 2.49764,-3.80687 3.74647,-5.7103 0.97843,-1.89921 2.01861,-3.76787 2.93529,-5.69763 0.88008,-1.85268 4.10845,-9.58065 4.93818,-11.45366 1.02275,-2.30877 4.28675,-9.20433 5.21221,-11.55272 0.79441,-2.01585 1.42134,-4.09373 2.13201,-6.1406 3.00138,-9.92924 4.8473,-20.14027 4.91123,-30.53381 0.0114,-1.86573 -0.15172,-3.72843 -0.22757,-5.59265 -0.86199,-10.12522 -4.50895,-19.61823 -8.95768,-28.65931 -2.96413,-6.0906 -5.74855,-12.33312 -9.64549,-17.91131 -3.14921,-4.50784 -4.12843,-5.22265 -7.93816,-9.20638 -5.20698,-4.80898 -10.26578,-9.89107 -16.46751,-13.44063 -2.23584,-1.27969 -8.51898,-4.2663 -10.73629,-5.33875 -5.81343,-2.85118 -10.93639,-6.88474 -16.58139,-10.01886 -3.17746,-1.76414 -4.45542,-2.18579 -7.81367,-3.585972 -7.19624,-2.787761 -14.83064,-3.476384 -22.4159,-4.37203 -6.05041,-0.858806 -12.06746,-1.87388 -18.19529,-1.232123 -2.91764,0.30556 -5.72905,0.987436 -8.58723,1.60377 -7.48499,1.434814 -14.31428,3.628638 -18.16907,10.695345 0,0 1.7668,0.9372 1.7668,0.9372 v 0 c 3.22898,-6.30964 10.28595,-8.476871 16.82449,-9.677621 2.70751,-0.585722 5.51458,-1.264148 8.2741,-1.561669 6.01173,-0.648163 11.91453,0.393028 17.85168,1.221301 7.40179,0.873924 14.85418,1.527379 21.88183,4.232249 3.19022,1.32571 4.52618,1.77407 7.54073,3.44694 5.70209,3.1643 10.87414,7.2434 16.75215,10.11197 1.98959,0.96211 8.45558,4.04081 10.52266,5.21874 6.07301,3.46074 11.00723,8.44958 16.1077,13.14371 3.65996,3.81339 4.66088,4.55817 7.68398,8.87898 3.86347,5.5219 6.61223,11.70875 9.5499,17.73925 4.33652,8.78544 7.8903,18.01742 8.75337,27.85802 0.52096,12.33877 -0.89141,23.56502 -4.57507,35.38868 -0.69014,1.99479 -1.2967,4.0205 -2.07042,5.98439 -0.91003,2.3099 -4.22587,9.32663 -5.22327,11.57807 -0.73988,1.67015 -4.07683,9.63287 -4.87773,11.32507 -0.88394,1.8677 -1.88616,3.67709 -2.82927,5.51563 -1.21928,1.86192 -2.36463,3.77438 -3.65784,5.58574 -6.89141,9.65273 -14.99441,18.46783 -23.35993,26.84094 -1.47179,1.1993 -2.89546,2.4602 -4.41536,3.59788 -6.48624,4.85505 -13.74659,8.75308 -21.02565,12.25201 -4.16597,1.13586 -8.34495,1.73538 -12.62454,2.33111 -3.13293,0.43611 -7.71231,1.06225 -10.91176,1.25151 -1.63277,0.0966 -3.27062,0.0636 -4.90593,0.0954 -5.87899,-0.2966 -11.62955,-1.05254 -17.46448,-1.8364 -6.76698,-0.90908 -13.57172,-1.76657 -20.06997,-3.98446 -4.92419,-1.72054 -7.3179,-2.39567 -11.98861,-4.65037 -8.23894,-3.97719 -15.29922,-9.89878 -22.16934,-15.8455 -1.69251,-1.61584 -3.46635,-3.15058 -5.07753,-4.84754 -7.01683,-7.39031 -11.74274,-16.63478 -16.90064,-25.31535 -1.84877,-4.55263 -2.7881,-6.33639 -3.88056,-11.1671 -0.51578,-2.28065 -0.78949,-4.60937 -1.18795,-6.91341 -1.24688,-7.20997 -2.60366,-14.39913 -3.81418,-21.61536 -1.76477,-13.56343 -2.73164,-27.26928 -2.21938,-40.952 0.64294,-5.43296 1.4855,-10.78871 2.67943,-16.13353 0.70827,-3.17078 2.05624,-8.85043 3.43924,-11.88776 0.83934,-1.84337 2.03954,-3.50006 3.0593,-5.2501 1.52535,-1.78984 2.97783,-3.64442 4.57602,-5.36954 7.79627,-8.41554 16.65798,-15.78545 25.71322,-22.7903 4.15255,-2.93961 8.77474,-6.34438 13.17148,-8.87721 10.01311,-5.768205 21.01406,-9.262624 32.12301,-12.220985 z" />
    <path
       style="fill:#1a1a1a;stroke:#642bdb;stroke-width:0"
       id="path20"
       d="m 832.47692,162.59548 c 12.68762,-0.0911 25.22551,-1.89425 37.71773,-3.92831 4.03651,-1.00969 7.78822,-0.96867 11.07157,1.77233 0.0246,0.0389 0.48739,0.729 0.4676,0.84314 -0.03,0.17284 -0.25001,0.25465 -0.32735,0.4121 -1.78183,3.62708 0.0719,0.90497 -2.83461,5.72855 -0.99219,1.64658 -2.11026,3.21393 -3.1654,4.8209 -5.5142,7.77265 -12.45713,14.50792 -19.81575,20.53698 -0.22633,0.18545 -4.97385,3.66309 -5.72453,4.21355 -1.47246,1.60605 -3.67435,4.03565 -3.02731,6.50179 0.22958,0.87504 0.73946,1.65131 1.10919,2.47697 6.23636,7.78599 15.76636,11.82652 24.95357,15.06229 2.74606,0.68783 4.82973,2.38043 6.73751,4.38085 1.29026,4.40531 -1.80613,9.36393 -4.48988,12.564 -1.52879,1.82293 -3.37423,3.35494 -5.06134,5.03241 -2.21009,1.46998 -4.29041,3.15678 -6.63025,4.40993 -7.29152,3.90506 -15.51284,5.48836 -23.50632,7.21312 -3.09192,0.66714 -11.11473,2.28823 -14.17881,2.91111 -7.61413,1.45511 -15.19344,3.05398 -22.7384,4.82969 0,0 0.45831,1.94679 0.45831,1.94679 v 0 c 7.52486,-1.77192 15.08458,-3.36458 22.6785,-4.81657 3.05392,-0.62082 11.14001,-2.2547 14.2168,-2.91921 8.24084,-1.77984 16.681,-3.44108 24.18154,-7.50232 2.4484,-1.3257 4.62203,-3.10568 6.93304,-4.65853 1.77419,-1.78483 3.71771,-3.41599 5.32257,-5.35448 3.22855,-3.89975 6.72078,-9.95711 4.25775,-15.04023 -2.12434,-2.20494 -4.48612,-4.10378 -7.51742,-4.88327 -8.70567,-3.05749 -17.74322,-6.85185 -23.82282,-14.05893 -0.3012,-0.53723 -0.7017,-1.02983 -0.90363,-1.6117 -0.62645,-1.80516 1.20801,-3.6692 2.21009,-4.87086 9.77535,-7.16824 19.0042,-15.30391 26.03024,-25.26691 1.75146,-2.67606 6.7302,-9.30812 6.44043,-12.95865 -0.0282,-0.35525 -0.86733,-1.33263 -0.9961,-1.49795 -3.97637,-3.13737 -7.79796,-3.32883 -12.65023,-2.1909 -12.43706,2.02524 -24.91859,3.82043 -37.55049,3.90828 z" />
    <path
       style="fill:#1a1a1a;stroke:#642bdb;stroke-width:0"
       id="path21"
       d="m 793.71194,307.06917 c -6.74772,2.40583 -13.23337,5.48563 -19.40917,9.11063 -9.82729,5.76834 -1.2246,1.24024 -11.46312,6.98993 -2.16406,1.21528 -4.38121,2.33344 -6.57183,3.50014 -9.40475,4.87238 -19.42859,8.43862 -28.94693,13.05515 -6.92644,3.35944 -9.31425,5.04434 -15.99162,9.11453 -2.9432,1.73646 -5.86415,3.51126 -8.82963,5.20941 -9.12246,5.22388 -9.16225,4.87309 -18.26947,10.33502 -9.59059,5.75177 -18.87339,11.99406 -28.14733,18.23564 -10.69401,7.27633 -21.93166,13.69406 -32.69165,20.86501 -14.7306,9.81713 -0.50597,0.66029 -13.99561,9.25222 -2.08085,1.21216 -4.15878,2.42937 -6.24258,3.63643 -6.58958,3.81706 -7.07848,3.90686 -13.46809,8.23214 -9.36553,6.33971 -3.19429,2.40072 -12.02507,9.0292 -1.8637,1.3989 -3.80738,2.68795 -5.71106,4.0319 -1.88857,1.05773 -3.74716,2.1708 -5.66571,3.17312 -4.31575,2.2547 -6.0919,2.74614 -10.27054,5.06995 -5.56258,3.09343 -10.56079,7.03241 -15.63799,10.83921 -1.87896,1.37459 -3.75137,2.7582 -5.63687,4.1238 -3.83905,2.78048 -5.30987,3.9366 -9.3427,6.24064 -5.90825,3.3755 -4.83872,2.40385 -11.0966,5.62653 -1.97104,1.01502 -3.89294,2.12272 -5.8394,3.1841 -6.4942,3.80307 -11.80164,9.23856 -18.15219,13.24687 -2.86145,1.80607 -5.80366,3.19002 -8.81962,4.69987 -5.09289,2.2012 -9.41957,5.64322 -14.2308,8.33937 -1.6718,0.73002 -2.89854,2.0819 -4.34785,3.12873 -0.80198,0.57928 -1.74318,0.92755 -2.60654,1.40216 -1.02121,0.32514 -1.89151,1.00777 -2.73624,1.64457 0,0 1.21121,1.59155 1.21121,1.59155 v 0 c 0.77097,-0.59354 1.55416,-1.19277 2.49354,-1.48627 1.08701,-0.60651 0.47831,-0.28991 1.83869,-0.92507 1.84759,-1.01425 3.1727,-2.75119 5.12495,-3.61098 4.78526,-2.682 9.08831,-6.09922 14.14881,-8.29587 3.1831,-1.59557 6.04528,-2.93709 9.07142,-4.85006 6.2856,-3.97343 11.55362,-9.33256 17.96238,-13.12912 1.91807,-1.04675 3.81151,-2.13987 5.75419,-3.14021 6.32841,-3.25877 5.27883,-2.29224 11.27511,-5.72463 4.0867,-2.33931 5.59787,-3.52166 9.47256,-6.32804 1.89185,-1.37022 3.77052,-2.75855 5.65578,-4.13785 4.98047,-3.73496 9.88359,-7.61859 15.34049,-10.65442 4.11245,-2.28785 6.08706,-2.87803 10.34693,-5.11067 1.97829,-1.03685 3.8939,-2.18911 5.84084,-3.28369 1.93397,-1.36668 3.90795,-2.67845 5.80191,-4.10003 8.79375,-6.60051 2.52325,-2.58657 11.86582,-8.91485 6.35043,-4.30154 6.81104,-4.37221 13.38951,-8.18388 2.10653,-1.22055 4.20685,-2.45179 6.31026,-3.67768 13.57905,-8.65132 -0.69046,0.53721 14.01326,-9.26359 10.76756,-7.1772 22.01523,-13.5976 32.71615,-20.88126 9.23483,-6.21559 18.47813,-12.43343 28.02821,-18.16143 9.03888,-5.42136 9.20938,-5.14664 18.28819,-10.34589 2.97386,-1.70307 5.90309,-3.48295 8.85462,-5.22441 6.53145,-3.98476 8.98242,-5.70595 15.75819,-8.99247 9.56238,-4.63815 19.63359,-8.21942 29.07948,-13.11966 2.21755,-1.18187 4.4618,-2.31492 6.6526,-3.5456 10.33793,-5.80724 1.63637,-1.21536 11.40696,-6.95775 6.10444,-3.58772 12.51725,-6.63183 19.1906,-9.00697 z" />
    <path
       style="fill:#1a1a1a;stroke:#642bdb;stroke-width:0"
       id="path22"
       d="m 318.12314,438.74012 c -8.56202,2.22729 -17.33349,4.73747 -24.93354,9.43877 -5.22348,3.23117 -6.2262,4.78071 -10.44966,9.10926 -8.46733,10.68406 -18.3364,20.2142 -26.02595,31.51717 -1.65943,2.43919 -3.10232,5.01888 -4.65348,7.52835 -1.27342,2.58141 -2.62928,5.12376 -3.82026,7.74425 -1.15468,2.54055 -2.12666,5.16032 -3.21308,7.73083 -3.86554,9.14596 -7.81898,18.16759 -11.1537,27.52672 -4.24638,14.20884 -6.14297,29.07265 -6.54113,43.86821 0.12124,8.48894 0.15746,17.13764 3.02532,25.24829 0.56525,1.59858 1.3226,3.12258 1.98389,4.68389 3.89631,8.09604 9.44705,15.20774 15.98479,21.31954 9.54659,6.87634 20.77771,10.98193 31.73816,15.03442 12.83954,4.32969 26.42346,5.69754 39.83077,7.09845 9.04658,0.49877 18.19979,0.53549 27.18723,-0.7752 2.4642,-0.35938 11.78349,-2.21353 14.06726,-2.65999 14.57119,-2.60612 28.29682,-8.23187 42.27042,-12.91368 14.31938,-4.23788 26.25211,-13.15233 37.56877,-22.56337 6.11349,-5.09932 12.35596,-10.1895 17.45041,-16.35734 3.04466,-3.68615 4.47532,-6.17614 6.99685,-10.12899 4.29154,-7.75806 8.20989,-15.85264 10.45975,-24.47091 0.44508,-1.70498 0.69955,-3.45411 1.04933,-5.18115 1.59367,-10.80749 -0.0556,-21.6254 -2.46578,-32.17191 -2.18834,-7.09551 -4.35227,-14.3415 -7.86212,-20.92875 -2.20163,-4.13197 -3.05464,-4.987 -5.87926,-8.82372 -5.39104,-6.6198 -10.73213,-13.31257 -16.94238,-19.19907 -3.84376,-3.64342 -4.95472,-4.3439 -9.17657,-7.63992 -7.34226,-4.64974 -13.8158,-10.59992 -21.22048,-15.15473 -3.55484,-2.18664 -7.68054,-4.07469 -11.42918,-5.89293 -10.2811,-4.87352 -21.24472,-8.30678 -32.35407,-10.69631 -9.88319,-2.25711 -19.99067,-2.92227 -30.03732,-4.02987 -1.30427,-0.0849 -2.60581,-0.26024 -3.91282,-0.25463 -3.05843,0.0132 -6.14172,0.52649 -9.14739,1.00049 -4.40415,0.69453 -8.79824,1.47781 -13.18411,2.27918 -6.85972,1.17633 -13.65207,3.20402 -19.81266,6.52531 -2.11571,1.14062 -4.07725,2.54659 -6.11587,3.81987 -7.57795,6.02932 -4.09474,3.15097 -10.48954,8.5866 0,0 1.29543,1.52376 1.29543,1.52376 v 0 c 6.28817,-5.34688 2.88118,-2.52764 10.25581,-8.41541 1.95834,-1.23034 3.84066,-2.59091 5.87502,-3.69102 6.01577,-3.25319 12.64806,-5.23875 19.35133,-6.3817 4.36301,-0.79737 8.73416,-1.57355 13.11489,-2.26777 2.71603,-0.43042 5.93799,-0.9684 8.72773,-0.98351 1.27699,-0.007 2.54871,0.16455 3.82307,0.24681 9.97945,1.09958 20.01962,1.75619 29.83683,3.99737 10.95475,2.34501 21.76309,5.74366 31.90115,10.54047 3.53201,1.71162 7.8131,3.67811 11.1632,5.73763 7.37349,4.533 13.81659,10.4608 21.12875,15.08725 4.12435,3.21535 5.23303,3.91642 8.98774,7.47242 6.1419,5.81684 11.41857,12.43576 16.75185,18.97684 2.71132,3.66924 3.56854,4.53739 5.68071,8.49135 3.44893,6.45634 5.56408,13.56609 7.72076,20.52064 2.35841,10.26726 3.97435,20.80421 2.45467,31.33039 -0.33187,1.65756 -0.56957,3.33677 -0.99555,4.97266 -2.20078,8.45164 -6.04036,16.388 -10.23951,23.99935 -2.41339,3.79021 -3.87509,6.32407 -6.78214,9.8498 -5.03269,6.10381 -11.21373,11.12996 -17.25748,16.17382 -11.1248,9.25537 -22.84166,18.04406 -36.92522,22.20463 -13.89129,4.65442 -27.53458,10.25194 -42.01879,12.84721 -2.10283,0.41114 -11.57418,2.29336 -13.90426,2.63504 -8.84483,1.29696 -17.85463,1.25624 -26.75871,0.77383 -13.24139,-1.38242 -26.66029,-2.72415 -39.34508,-6.98524 -10.71517,-3.9602 -21.68997,-7.97015 -31.06747,-14.62103 -6.34676,-5.90529 -11.7132,-12.81298 -15.50855,-20.63996 -0.63302,-1.48093 -1.35982,-2.92521 -1.89906,-4.44278 -2.81331,-7.91742 -2.8253,-16.36435 -2.95123,-24.65327 0.383,-14.58534 2.26061,-29.23923 6.4259,-43.2503 3.3209,-9.32749 7.26644,-18.31562 11.11667,-27.43065 1.06927,-2.5314 2.02538,-5.1114 3.16014,-7.61412 1.16239,-2.56363 2.48522,-5.05145 3.72782,-7.57719 1.51962,-2.4629 2.93215,-4.99518 4.55887,-7.3887 7.63435,-11.233 17.45052,-20.6914 25.85295,-31.31363 3.9592,-4.08852 5.01179,-5.67393 9.92251,-8.72077 7.43013,-4.61002 16.01295,-7.06398 24.38659,-9.25401 z" />
    <path
       style="fill:#1a1a1a;stroke:#642bdb;stroke-width:0"
       id="path23"
       d="m 322.05136,513.00252 c 5.25822,-4.02756 10.75735,-7.77192 16.8675,-10.4105 6.42422,-2.77424 13.36175,-4.36666 20.14403,-5.95583 6.83106,-1.04267 14.04892,-4.20674 21.06623,-3.31618 1.91585,0.24315 3.30644,0.97758 5.027,1.72538 1.90363,0.85807 4.35232,1.3848 5.71723,3.14325 2.64427,3.40664 3.10581,8.31225 3.84987,12.34522 0.0938,1.99681 0.36983,3.99335 0.28154,5.99037 -0.19224,4.34848 -1.27587,8.15176 -2.60212,12.27609 -2.19231,6.81765 -4.9892,13.24218 -8.21936,19.61565 -5.4346,8.50913 -11.55396,16.93135 -19.16399,23.66222 -4.09831,3.62484 -6.03792,4.47185 -10.6078,7.12877 -7.26639,2.61125 -15.35391,6.61331 -23.2377,6.10317 -0.61412,-0.18709 -1.25124,-0.31086 -1.84239,-0.56129 -0.72639,-0.30771 -2.96241,-1.93892 -3.39186,-2.64914 -0.0578,-0.0956 0.0477,-0.21828 0.0715,-0.32742 0.39209,-4.09718 1.23219,-8.48138 3.81781,-11.83928 0.5828,-0.7569 1.37951,-1.32181 2.06928,-1.98271 5.75791,-4.01585 11.89627,-4.42891 18.65942,-3.5015 5.52262,1.82695 10.08303,5.485 14.75793,8.81073 4.95038,3.52174 3.23726,2.26727 7.89646,5.89423 6.08164,4.71033 8.25606,12.19743 11.42902,18.87646 1.74329,3.66962 4.56626,8.94549 6.42946,12.48979 5.34736,9.22713 2.57521,4.99491 8.18348,12.78266 0,0 1.62213,-1.16994 1.62213,-1.16994 v 0 c -5.4873,-7.59605 -2.76076,-3.44612 -8.03534,-12.54336 -1.80295,-3.42937 -4.68024,-8.80989 -6.37352,-12.37457 -3.31404,-6.97671 -5.64838,-14.74192 -12.02695,-19.63943 -3.9501,-3.07295 -7.98587,-5.98668 -12.08792,-8.85402 -3.17129,-2.21673 -4.39147,-3.24644 -7.83058,-4.83389 -1.19906,-0.55345 -2.46554,-0.94726 -3.69832,-1.42089 -7.58457,-0.99623 -13.92168,-0.49162 -20.32772,4.05784 -0.80111,0.80544 -1.71969,1.50907 -2.40334,2.41636 -2.83666,3.76454 -3.89285,8.75398 -4.00971,13.36175 0.171,0.42611 0.26985,0.88886 0.513,1.27836 0.0793,0.127 1.42756,1.24235 1.46365,1.27248 1.50878,1.2609 2.97952,2.17403 4.99734,2.45335 0.87707,0.0469 1.75355,0.17383 2.63126,0.14063 2.93642,-0.11105 3.91953,-0.51721 6.80182,-1.3245 5.07995,-1.42285 10.09007,-3.06838 14.9292,-5.18811 4.79041,-2.80083 6.71859,-3.6349 11.01968,-7.44742 7.75856,-6.87718 14.00387,-15.47053 19.52911,-24.16804 3.28208,-6.49153 6.14307,-13.03229 8.36054,-19.9784 1.40557,-4.40298 2.4856,-8.27841 2.6742,-12.91357 0.0849,-2.08759 -0.20873,-4.1734 -0.31311,-6.26009 -0.86185,-4.57425 -1.42891,-9.76316 -4.54157,-13.51997 -1.5453,-1.86508 -4.08969,-2.53082 -6.203,-3.4398 -2.08235,-0.88326 -3.43366,-1.61031 -5.77196,-1.88693 -7.30126,-0.86378 -14.48004,2.24512 -21.56659,3.36854 -6.94386,1.63021 -14.0272,3.27271 -20.60093,6.12384 -6.21065,2.69364 -11.80849,6.49642 -17.15802,10.59272 z" />
  </g>
</svg>
