<svg width="172pt" height="188pt" viewBox="0.00 0.00 172.00 188.00" xmlns="http://www.w3.org/2000/svg" xmlns:xlink="http://www.w3.org/1999/xlink">
<g id="graph0" class="graph" transform="scale(1 1) rotate(0) translate(4 184)">
<title>G</title>
<!-- <polygon fill="white" stroke="none" points="-4,4 -4,-184 168,-184 168,4 -4,4"/> -->
<!-- 1 -->
<g id="node1" class="node">
<title>1</title>
<ellipse fill="none" stroke="blue" cx="27" cy="-90" rx="27" ry="18"/>
<text text-anchor="middle" x="27" y="-85.8" font-family="Times,serif" font-size="14.00">1</text>
</g>
<!-- 3 -->
<g id="node3" class="node">
<title>3</title>
<ellipse fill="none" stroke="green" cx="82" cy="-18" rx="27" ry="18"/>
<text text-anchor="middle" x="82" y="-13.8" font-family="Times,serif" font-size="14.00">3</text>
</g>
<!-- 1&#45;&#45;3 -->
<g id="edge1" class="edge">
<title>1--3</title>
<path fill="none" stroke="red" d="M39.21,-73.46C48.32,-61.86 60.72,-46.08 69.83,-34.49"/>
</g>
<!-- 2 -->
<g id="node2" class="node">
<title>2</title>
<ellipse fill="none" stroke="red" cx="109" cy="-162" rx="27" ry="18"/>
<text text-anchor="middle" x="109" y="-157.8" font-family="Times,serif" font-size="14.00">2</text>
</g>
<!-- 2&#45;&#45;3 -->
<g id="edge4" class="edge">
<title>2--3</title>
<path fill="none" stroke="red" d="M105.74,-143.87C100.55,-116.58 90.47,-63.52 85.27,-36.19"/>
</g>
<!-- 4 -->
<g id="node4" class="node">
<title>4</title>
<ellipse fill="none" stroke="black" cx="137" cy="-90" rx="27" ry="18"/>
<text text-anchor="middle" x="137" y="-85.8" font-family="Times,serif" font-size="14.00">4</text>
</g>
<!-- 2&#45;&#45;4 -->
<g id="edge3" class="edge">
<title>2--4</title>
<path fill="none" stroke="black" d="M115.64,-144.41C120.1,-133.25 125.96,-118.6 130.41,-107.47"/>
</g>
<!-- 4&#45;&#45;3 -->
<g id="edge2" class="edge">
<title>4--3</title>
<path fill="none" stroke="black" d="M124.79,-73.46C115.68,-61.86 103.28,-46.08 94.17,-34.49"/>
</g>
</g>
</svg>
